<svg width="151" height="86" viewBox="0 0 151 86" fill="none" xmlns="http://www.w3.org/2000/svg">
<path d="M0.889188 -2.246L1.95119 -2.744L7.04519 7.798L5.97719 8.278L0.889188 -2.246ZM8.0845 13.754L9.1465 13.256L14.2405 23.798L13.1725 24.278L8.0845 13.754ZM40.5498 12.908L42.8177 16.676H41.4378L39.9318 14.006L38.4498 16.676H37.0698L39.3378 12.908H40.5498ZM44.1391 25.196V24.086H50.8591V25.196H44.1391ZM50.6144 25.196V24.086H57.3344V25.196H50.6144ZM62.1357 12.908L64.4037 16.676H63.0237L61.5177 14.006L60.0357 16.676H58.6557L60.9237 12.908H62.1357ZM15.2798 29.754L16.3418 29.256L21.4358 39.798L20.3678 40.278L15.2798 29.754ZM39.1158 34.8C39.1158 35.376 39.1618 35.898 39.2538 36.366C39.3498 36.83 39.4978 37.264 39.6978 37.668C39.8978 38.068 40.1518 38.46 40.4598 38.844C40.7718 39.228 41.1418 39.626 41.5698 40.038L40.8258 40.758C40.1818 40.222 39.6278 39.666 39.1638 39.09C38.7038 38.518 38.3498 37.884 38.1018 37.188C37.8538 36.492 37.7298 35.696 37.7298 34.8C37.7298 33.9 37.8538 33.102 38.1018 32.406C38.3498 31.71 38.7038 31.076 39.1638 30.504C39.6278 29.928 40.1818 29.374 40.8258 28.842L41.5698 29.562C41.1498 29.966 40.7838 30.36 40.4718 30.744C40.1638 31.124 39.9078 31.516 39.7038 31.92C39.5038 32.324 39.3558 32.76 39.2598 33.228C39.1638 33.696 39.1158 34.22 39.1158 34.8ZM47.1451 32.496C47.7651 32.496 48.2871 32.634 48.7111 32.91C49.1351 33.186 49.4551 33.572 49.6711 34.068C49.8911 34.564 50.0011 35.148 50.0011 35.82C50.0011 36.488 49.8891 37.074 49.6651 37.578C49.4451 38.078 49.1211 38.468 48.6931 38.748C48.2691 39.024 47.7511 39.162 47.1391 39.162C46.5271 39.162 46.0071 39.028 45.5791 38.76C45.1551 38.488 44.8311 38.102 44.6071 37.602C44.3871 37.102 44.2771 36.512 44.2771 35.832C44.2771 35.172 44.3871 34.592 44.6071 34.092C44.8311 33.592 45.1571 33.202 45.5851 32.922C46.0131 32.638 46.5331 32.496 47.1451 32.496ZM47.1451 33.54C46.6611 33.54 46.2971 33.726 46.0531 34.098C45.8091 34.466 45.6871 35.044 45.6871 35.832C45.6871 36.616 45.8071 37.194 46.0471 37.566C46.2911 37.938 46.6551 38.124 47.1391 38.124C47.6231 38.124 47.9851 37.938 48.2251 37.566C48.4691 37.194 48.5911 36.612 48.5911 35.82C48.5911 35.04 48.4711 34.466 48.2311 34.098C47.9911 33.726 47.6291 33.54 47.1451 33.54ZM54.3404 32.496C54.9604 32.496 55.4824 32.634 55.9064 32.91C56.3304 33.186 56.6504 33.572 56.8664 34.068C57.0864 34.564 57.1964 35.148 57.1964 35.82C57.1964 36.488 57.0844 37.074 56.8604 37.578C56.6404 38.078 56.3164 38.468 55.8884 38.748C55.4644 39.024 54.9464 39.162 54.3344 39.162C53.7224 39.162 53.2024 39.028 52.7744 38.76C52.3504 38.488 52.0264 38.102 51.8024 37.602C51.5824 37.102 51.4724 36.512 51.4724 35.832C51.4724 35.172 51.5824 34.592 51.8024 34.092C52.0264 33.592 52.3524 33.202 52.7804 32.922C53.2084 32.638 53.7284 32.496 54.3404 32.496ZM54.3404 33.54C53.8564 33.54 53.4924 33.726 53.2484 34.098C53.0044 34.466 52.8824 35.044 52.8824 35.832C52.8824 36.616 53.0024 37.194 53.2424 37.566C53.4864 37.938 53.8504 38.124 54.3344 38.124C54.8184 38.124 55.1804 37.938 55.4204 37.566C55.6644 37.194 55.7864 36.612 55.7864 35.82C55.7864 35.04 55.6664 34.466 55.4264 34.098C55.1864 33.726 54.8244 33.54 54.3404 33.54ZM62.3577 34.8C62.3577 34.22 62.3097 33.696 62.2137 33.228C62.1177 32.76 61.9677 32.324 61.7637 31.92C61.5637 31.516 61.3077 31.124 60.9957 30.744C60.6877 30.36 60.3237 29.966 59.9037 29.562L60.6477 28.842C61.2917 29.374 61.8437 29.928 62.3037 30.504C62.7677 31.076 63.1237 31.71 63.3717 32.406C63.6197 33.102 63.7437 33.9 63.7437 34.8C63.7437 35.696 63.6197 36.492 63.3717 37.188C63.1237 37.884 62.7677 38.518 62.3037 39.09C61.8437 39.666 61.2917 40.222 60.6477 40.758L59.9037 40.038C60.3317 39.626 60.6997 39.228 61.0077 38.844C61.3197 38.46 61.5757 38.068 61.7757 37.668C61.9757 37.264 62.1217 36.83 62.2137 36.366C62.3097 35.898 62.3577 35.376 62.3577 34.8ZM65.647 29.754L66.709 29.256L71.803 39.798L70.735 40.278L65.647 29.754ZM72.9203 41.196V40.086H79.6403V41.196H72.9203ZM79.3956 41.196V40.086H86.8356V41.196H79.3956ZM86.5909 41.196V40.086H94.0309V41.196H86.5909ZM93.7862 41.196V40.086H101.226V41.196H93.7862ZM100.982 41.196V40.086H108.422V41.196H100.982ZM108.177 41.196V40.086H115.617V41.196H108.177ZM115.372 41.196V40.086H122.092V41.196H115.372ZM39.1158 50.8C39.1158 51.376 39.1618 51.898 39.2538 52.366C39.3498 52.83 39.4978 53.264 39.6978 53.668C39.8978 54.068 40.1518 54.46 40.4598 54.844C40.7718 55.228 41.1418 55.626 41.5698 56.038L40.8258 56.758C40.1818 56.222 39.6278 55.666 39.1638 55.09C38.7038 54.518 38.3498 53.884 38.1018 53.188C37.8538 52.492 37.7298 51.696 37.7298 50.8C37.7298 49.9 37.8538 49.102 38.1018 48.406C38.3498 47.71 38.7038 47.076 39.1638 46.504C39.6278 45.928 40.1818 45.374 40.8258 44.842L41.5698 45.562C41.1498 45.966 40.7838 46.36 40.4718 46.744C40.1638 47.124 39.9078 47.516 39.7038 47.92C39.5038 48.324 39.3558 48.76 39.2598 49.228C39.1638 49.696 39.1158 50.22 39.1158 50.8ZM44.1391 57.196V56.086H50.8591V57.196H44.1391ZM50.6144 57.196V56.086H57.3344V57.196H50.6144ZM62.3577 50.8C62.3577 50.22 62.3097 49.696 62.2137 49.228C62.1177 48.76 61.9677 48.324 61.7637 47.92C61.5637 47.516 61.3077 47.124 60.9957 46.744C60.6877 46.36 60.3237 45.966 59.9037 45.562L60.6477 44.842C61.2917 45.374 61.8437 45.928 62.3037 46.504C62.7677 47.076 63.1237 47.71 63.3717 48.406C63.6197 49.102 63.7437 49.9 63.7437 50.8C63.7437 51.696 63.6197 52.492 63.3717 53.188C63.1237 53.884 62.7677 54.518 62.3037 55.09C61.8437 55.666 61.2917 56.222 60.6477 56.758L59.9037 56.038C60.3317 55.626 60.6997 55.228 61.0077 54.844C61.3197 54.46 61.5757 54.068 61.7757 53.668C61.9757 53.264 62.1217 52.83 62.2137 52.366C62.3097 51.898 62.3577 51.376 62.3577 50.8ZM65.647 45.754L66.709 45.256L71.803 55.798L70.735 56.278L65.647 45.754ZM127.116 50.8C127.116 50.22 127.068 49.696 126.972 49.228C126.876 48.76 126.726 48.324 126.522 47.92C126.322 47.516 126.066 47.124 125.754 46.744C125.446 46.36 125.082 45.966 124.662 45.562L125.406 44.842C126.05 45.374 126.602 45.928 127.062 46.504C127.526 47.076 127.882 47.71 128.13 48.406C128.378 49.102 128.502 49.9 128.502 50.8C128.502 51.696 128.378 52.492 128.13 53.188C127.882 53.884 127.526 54.518 127.062 55.09C126.602 55.666 126.05 56.222 125.406 56.758L124.662 56.038C125.09 55.626 125.458 55.228 125.766 54.844C126.078 54.46 126.334 54.068 126.534 53.668C126.734 53.264 126.88 52.83 126.972 52.366C127.068 51.898 127.116 51.376 127.116 50.8ZM130.405 45.754L131.467 45.256L136.561 55.798L135.493 56.278L130.405 45.754ZM138.668 56.278L137.6 55.798L142.7 45.256L143.756 45.754L138.668 56.278ZM144.795 45.754L145.857 45.256L150.951 55.798L149.883 56.278L144.795 45.754ZM79.6403 66.674V67.814H74.1323V66.674H79.6403ZM74.7743 62.3V72.236H73.5443V62.3H74.7743ZM71.1083 62.3V72.236H69.8783V62.3H71.1083ZM79.3956 67.814V66.674H86.8356V67.814H79.3956ZM86.5909 67.814V66.674H94.0309V67.814H86.5909ZM93.7862 67.814V66.674H101.226V67.814H93.7862ZM106.88 67.814H100.982V66.674H106.88V67.814ZM114.321 71H112.641L111.927 66.5L111.159 71H109.515L108.441 64.664H109.737L110.397 70.166L111.279 65.468H112.623L113.445 70.166L114.105 64.664H115.353L114.321 71ZM126.9 60.2V74.6H125.676V60.2H126.9ZM70.7723 76.2V90.6H69.5483V76.2H70.7723ZM75.0923 76.2V90.6H73.8683V76.2H75.0923ZM121.139 76.2V90.6H119.915V76.2H121.139ZM125.46 76.2V90.6H124.236V76.2H125.46Z" fill="#565F89"/>
</svg>
