<svg width="170" height="30" viewBox="0 0 170 30" fill="none" xmlns="http://www.w3.org/2000/svg">
<path d="M12.712 7.976V29H7.798V7.976H0.526V4.106H20.2L19.696 7.976H12.712ZM28.7359 1.874V12.08C29.5279 11.18 30.4159 10.508 31.3999 10.064C32.3959 9.62 33.4339 9.398 34.5139 9.398C36.2659 9.398 37.5799 9.896 38.4559 10.892C39.3439 11.876 39.7879 13.262 39.7879 15.05V29H35.0359V16.112C35.0359 14.96 34.8559 14.144 34.4959 13.664C34.1479 13.184 33.5479 12.944 32.6959 12.944C32.1919 12.944 31.6999 13.064 31.2199 13.304C30.7519 13.532 30.3079 13.844 29.8879 14.24C29.4799 14.636 29.0959 15.08 28.7359 15.572V29H23.9839V2.342L28.7359 1.874ZM56.5319 9.938V25.634H61.5539V29H46.1999V25.634H51.7799V13.304H46.3799V9.938H56.5319ZM53.4539 0.325999C54.3299 0.325999 55.0379 0.595999 55.5779 1.136C56.1299 1.676 56.4059 2.348 56.4059 3.152C56.4059 3.956 56.1299 4.634 55.5779 5.186C55.0379 5.726 54.3299 5.996 53.4539 5.996C52.5779 5.996 51.8639 5.726 51.3119 5.186C50.7599 4.634 50.4839 3.956 50.4839 3.152C50.4839 2.348 50.7599 1.676 51.3119 1.136C51.8639 0.595999 52.5779 0.325999 53.4539 0.325999ZM67.1558 29V9.938H71.2958L71.6378 12.296C72.4538 11.336 73.3718 10.616 74.3918 10.136C75.4118 9.644 76.5098 9.398 77.6858 9.398C79.4018 9.398 80.7098 9.896 81.6098 10.892C82.5098 11.876 82.9598 13.262 82.9598 15.05V29H78.2078V16.904C78.2078 15.944 78.1478 15.176 78.0278 14.6C77.9078 14.012 77.6798 13.592 77.3438 13.34C77.0078 13.076 76.5218 12.944 75.8858 12.944C75.3698 12.944 74.8718 13.058 74.3918 13.286C73.9238 13.514 73.4798 13.82 73.0598 14.204C72.6518 14.588 72.2678 15.014 71.9078 15.482V29H67.1558ZM106.094 9.938L99.0198 18.434L106.778 29H101.18L93.8358 18.56L100.856 9.938H106.094ZM93.5658 1.82V29H88.8138V2.324L93.5658 1.82Z" fill="white"/>
<path d="M126.834 4.106L128.238 29H123.846L123.378 17.534C123.342 16.574 123.318 15.686 123.306 14.87C123.306 14.042 123.312 13.262 123.324 12.53C123.336 11.786 123.354 11.072 123.378 10.388C123.414 9.704 123.456 9.032 123.504 8.372L120.21 24.68H116.214L112.686 8.372C112.734 9.008 112.776 9.674 112.812 10.37C112.848 11.066 112.872 11.792 112.884 12.548C112.908 13.304 112.92 14.102 112.92 14.942C112.932 15.782 112.92 16.658 112.884 17.57L112.542 29H108.222L109.626 4.106H115.098L118.302 20.54L121.362 4.106H126.834Z" fill="#ED4C4C"/>
<path d="M147.124 23.978C147.124 24.71 147.232 25.244 147.448 25.58C147.664 25.904 148.012 26.15 148.492 26.318L147.466 29.504C146.446 29.396 145.576 29.144 144.856 28.748C144.148 28.34 143.602 27.734 143.218 26.93C142.498 27.806 141.586 28.46 140.482 28.892C139.39 29.324 138.244 29.54 137.044 29.54C135.1 29.54 133.558 28.988 132.418 27.884C131.278 26.78 130.708 25.346 130.708 23.582C130.708 21.554 131.5 19.994 133.084 18.902C134.68 17.798 136.936 17.246 139.852 17.246H142.516V16.22C142.516 15.092 142.168 14.276 141.472 13.772C140.776 13.256 139.774 12.998 138.466 12.998C137.854 12.998 137.086 13.082 136.162 13.25C135.25 13.406 134.308 13.652 133.336 13.988L132.202 10.73C133.414 10.274 134.632 9.938 135.856 9.722C137.092 9.506 138.214 9.398 139.222 9.398C141.898 9.398 143.884 9.968 145.18 11.108C146.476 12.236 147.124 13.838 147.124 15.914V23.978ZM138.592 26.102C139.312 26.102 140.038 25.898 140.77 25.49C141.514 25.082 142.096 24.512 142.516 23.78V20.072H140.644C138.88 20.072 137.602 20.354 136.81 20.918C136.03 21.482 135.64 22.28 135.64 23.312C135.64 24.2 135.892 24.89 136.396 25.382C136.9 25.862 137.632 26.102 138.592 26.102Z" fill="#1FC156"/>
<path d="M164.552 1.82L169.304 2.324V29H165.092L164.804 26.75C164.216 27.59 163.478 28.268 162.59 28.784C161.702 29.288 160.67 29.54 159.494 29.54C157.886 29.54 156.554 29.12 155.498 28.28C154.454 27.44 153.674 26.264 153.158 24.752C152.654 23.228 152.402 21.458 152.402 19.442C152.402 17.498 152.702 15.77 153.302 14.258C153.902 12.746 154.766 11.558 155.894 10.694C157.034 9.83 158.384 9.398 159.944 9.398C160.88 9.398 161.732 9.56 162.5 9.884C163.268 10.208 163.952 10.688 164.552 11.324V1.82ZM161.222 12.944C160.022 12.944 159.074 13.466 158.378 14.51C157.694 15.542 157.352 17.192 157.352 19.46C157.352 21.056 157.496 22.334 157.784 23.294C158.072 24.242 158.48 24.926 159.008 25.346C159.536 25.766 160.16 25.976 160.88 25.976C161.672 25.976 162.368 25.742 162.968 25.274C163.58 24.794 164.108 24.2 164.552 23.492V14.816C164.108 14.228 163.61 13.772 163.058 13.448C162.518 13.112 161.906 12.944 161.222 12.944Z" fill="#4086F0"/>
</svg>
